<mxfile host="65bd71144e">
    <diagram id="qCnaVXlrUtLdoBFSRlJ8" name="Page-1">
        <mxGraphModel dx="990" dy="759" grid="1" gridSize="10" guides="1" tooltips="1" connect="1" arrows="1" fold="1" page="1" pageScale="1" pageWidth="850" pageHeight="1100" math="0" shadow="0">
            <root>
                <mxCell id="0"/>
                <mxCell id="1" parent="0"/>
                <mxCell id="99" value="" style="shape=hexagon;perimeter=hexagonPerimeter2;whiteSpace=wrap;html=1;fixedSize=1;strokeWidth=2;fontStyle=1;fontSize=14;rounded=0;size=30;" parent="1" vertex="1">
                    <mxGeometry x="60" y="80" width="110" height="80" as="geometry"/>
                </mxCell>
                <mxCell id="124" value="" style="shape=hexagon;perimeter=hexagonPerimeter2;whiteSpace=wrap;html=1;fixedSize=1;strokeWidth=2;fontStyle=1;fontSize=14;rounded=0;size=30;" vertex="1" parent="1">
                    <mxGeometry x="140" y="120" width="110" height="80" as="geometry"/>
                </mxCell>
                <mxCell id="125" value="" style="shape=hexagon;perimeter=hexagonPerimeter2;whiteSpace=wrap;html=1;fixedSize=1;strokeWidth=2;fontStyle=1;fontSize=14;rounded=0;size=30;" vertex="1" parent="1">
                    <mxGeometry x="60" y="160" width="110" height="80" as="geometry"/>
                </mxCell>
                <mxCell id="126" value="" style="shape=hexagon;perimeter=hexagonPerimeter2;whiteSpace=wrap;html=1;fixedSize=1;strokeWidth=2;fontStyle=1;fontSize=14;rounded=0;size=30;" vertex="1" parent="1">
                    <mxGeometry x="140" y="200" width="110" height="80" as="geometry"/>
                </mxCell>
                <mxCell id="127" value="" style="shape=hexagon;perimeter=hexagonPerimeter2;whiteSpace=wrap;html=1;fixedSize=1;strokeWidth=2;fontStyle=1;fontSize=14;rounded=0;size=30;" vertex="1" parent="1">
                    <mxGeometry x="220" y="160" width="110" height="80" as="geometry"/>
                </mxCell>
                <mxCell id="128" value="" style="shape=hexagon;perimeter=hexagonPerimeter2;whiteSpace=wrap;html=1;fixedSize=1;strokeWidth=2;fontStyle=1;fontSize=14;rounded=0;size=30;" vertex="1" parent="1">
                    <mxGeometry x="140" y="40" width="110" height="80" as="geometry"/>
                </mxCell>
                <mxCell id="129" value="" style="shape=hexagon;perimeter=hexagonPerimeter2;whiteSpace=wrap;html=1;fixedSize=1;strokeWidth=2;fontStyle=1;fontSize=14;rounded=0;size=30;" vertex="1" parent="1">
                    <mxGeometry x="220" y="80" width="110" height="80" as="geometry"/>
                </mxCell>
                <mxCell id="130" value="" style="shape=hexagon;perimeter=hexagonPerimeter2;whiteSpace=wrap;html=1;fixedSize=1;strokeWidth=2;fontStyle=1;fontSize=14;rounded=0;size=30;" vertex="1" parent="1">
                    <mxGeometry x="300" y="120" width="110" height="80" as="geometry"/>
                </mxCell>
                <mxCell id="131" value="" style="shape=hexagon;perimeter=hexagonPerimeter2;whiteSpace=wrap;html=1;fixedSize=1;strokeWidth=2;fontStyle=1;fontSize=14;rounded=0;size=30;" vertex="1" parent="1">
                    <mxGeometry x="300" y="40" width="110" height="80" as="geometry"/>
                </mxCell>
                <mxCell id="132" value="" style="shape=hexagon;perimeter=hexagonPerimeter2;whiteSpace=wrap;html=1;fixedSize=1;strokeWidth=2;fontStyle=1;fontSize=14;rounded=0;size=30;" vertex="1" parent="1">
                    <mxGeometry x="220" y="240" width="110" height="80" as="geometry"/>
                </mxCell>
            </root>
        </mxGraphModel>
    </diagram>
</mxfile>
